<?xml version="1.0" standalone="no"?>
<!DOCTYPE svg PUBLIC "-//W3C//DTD SVG 20010904//EN"
 "http://www.w3.org/TR/2001/REC-SVG-20010904/DTD/svg10.dtd">
<svg version="1.0" xmlns="http://www.w3.org/2000/svg"
 width="300.000000pt" height="300.000000pt" viewBox="0 0 300.000000 300.000000"
 preserveAspectRatio="xMidYMid meet">
<metadata>
Created by potrace 1.10, written by Peter Selinger 2001-2011
</metadata>
<g transform="translate(0.000000,300.000000) scale(0.100000,-0.100000)"
fill="#000000" stroke="none">
<path d="M1410 2460 c-413 -40 -755 -338 -850 -742 -10 -46 -24 -150 -29 -233
-15 -223 -54 -352 -149 -492 -55 -81 -186 -202 -263 -242 -35 -19 -66 -35 -68
-37 -5 -4 42 -85 49 -82 6 3 690 398 930 538 520 303 880 504 913 512 42 9 60
6 119 -19 45 -19 48 -26 55 -128 18 -280 -171 -546 -447 -630 -73 -22 -219
-27 -297 -10 -85 19 -176 61 -249 116 l-61 46 -144 -83 c-79 -46 -148 -85
-154 -88 -14 -5 86 -107 160 -163 109 -84 294 -160 434 -181 88 -13 273 -7
351 12 278 68 507 243 640 489 79 145 106 257 119 485 7 136 13 170 40 252 49
144 109 239 219 344 53 51 147 118 194 137 33 13 34 19 10 58 l-17 29 -85 -51
c-47 -27 -247 -143 -445 -257 -198 -113 -569 -327 -825 -476 -457 -264 -466
-269 -520 -268 -61 0 -111 22 -135 58 -10 14 -18 57 -21 107 -12 174 55 350
180 475 79 78 136 113 246 152 64 22 92 26 190 26 103 0 124 -3 200 -30 90
-32 176 -82 223 -132 l28 -30 149 87 c82 47 150 90 150 94 0 16 -97 111 -173
168 -189 143 -431 211 -667 189z m340 -60 c99 -29 183 -68 267 -123 76 -50
183 -144 183 -161 0 -9 -90 -71 -124 -85 -6 -2 -30 -17 -55 -33 -25 -15 -51
-28 -58 -28 -6 0 -42 22 -78 49 -124 93 -278 139 -426 128 -102 -8 -159 -23
-238 -64 -103 -53 -110 -58 -168 -115 -139 -136 -206 -298 -199 -488 4 -135
27 -173 121 -205 74 -25 122 -14 245 57 58 33 130 74 160 91 30 17 71 40 90
52 19 12 51 30 70 40 127 63 -157 -110 -375 -229 -11 -6 -27 -16 -35 -22 -8
-7 -105 -63 -215 -126 -110 -63 -231 -133 -269 -156 -37 -23 -70 -42 -72 -42
-2 0 -27 -14 -56 -31 -155 -92 -378 -218 -396 -223 -16 -6 -22 -3 -22 8 0 9 5
16 11 16 14 0 146 99 195 147 126 123 222 315 244 488 5 39 11 116 14 171 8
149 40 282 94 389 124 250 341 429 598 494 43 11 88 22 99 25 11 3 88 3 170 1
117 -3 166 -8 225 -25z m1125 -125 c-16 -14 -42 -30 -57 -36 -16 -6 -28 -15
-28 -20 0 -5 -4 -9 -9 -9 -17 0 -136 -125 -188 -197 -54 -75 -81 -129 -113
-223 -30 -89 -38 -143 -45 -282 -3 -68 -10 -150 -16 -183 -53 -301 -285 -585
-568 -694 -125 -48 -212 -65 -346 -65 -252 1 -470 85 -642 248 -40 37 -50 52
-42 62 6 7 62 43 124 79 l113 66 65 -46 c85 -59 157 -90 257 -111 313 -63 636
130 737 439 26 79 40 240 26 302 -7 30 -20 48 -52 72 -39 30 -49 33 -113 33
-77 0 -77 0 -284 -121 -101 -59 -141 -76 -94 -39 14 11 28 20 31 20 4 0 48 25
98 55 51 30 94 55 96 55 2 0 55 31 117 69 107 65 318 188 418 243 25 14 122
69 215 123 94 54 190 109 215 123 25 14 59 34 75 44 41 25 46 22 10 -7z"/>
</g>
</svg>
