<svg width="312" height="312" viewBox="0 0 312 312" fill="none" xmlns="http://www.w3.org/2000/svg">
<g clip-path="url(#clip0_12910_2176)">
<rect width="312" height="312" rx="12" fill="#F8F8F8"/>
<path d="M190.483 245.189L96.1138 223.611L109.856 155.275L211.046 216.558L190.483 245.189Z" fill="#DCC6FF"/>
<path d="M69.6444 301.349L54.2621 229.226C49.9086 209.055 52.6658 188.159 61.8081 169.729L77.4127 143.665L107.084 154.056C116.807 158.12 124.498 166.101 127.981 175.969L170.21 292.932C173.838 302.946 166.437 313.394 155.843 313.394H84.5914C77.4807 313.394 71.2407 308.46 69.6444 301.349Z" fill="#DCC6FF"/>
<path d="M76.186 145.842L87.639 138.82L100.699 142.593L107.085 164.215C107.665 166.392 105.198 167.988 103.457 166.682L76.186 145.842Z" fill="#824F36"/>
<path d="M146.121 226.324L140.171 209.781C139.736 208.62 141.332 207.749 142.058 208.765L155.118 226.324H146.121Z" fill="#6AAED8"/>
<path d="M96.8688 203.773L116.097 267.508L161.097 266.42L168.353 287.839L122.917 300.696C105.518 305.079 88.5101 295.399 82.5458 279.814L82.4442 279.64C82.183 278.958 81.8202 278.101 81.6026 277.289L64.9287 203.555L86.2753 189.784L91.7462 192.178" fill="#BCA4EA"/>
<path d="M194.01 272.762C229.432 272.762 258.151 244.043 258.151 208.62C258.151 173.198 229.432 144.479 194.01 144.479C158.587 144.479 129.868 173.198 129.868 208.62C129.868 244.043 158.587 272.762 194.01 272.762Z" fill="#F8F8F8"/>
<path d="M109.081 213.521L140.691 207.36L156 224.93L165.421 282.201L109.081 213.521Z" fill="#DCC6FF"/>
<path d="M192.282 212.596L129.157 166.885L113.194 207.517L163.255 238.716C172.761 244.216 184.446 243.898 195.156 241.446L261.212 226.382V208.968L192.282 212.596Z" fill="#DCC6FF"/>
<path d="M246.541 154.782C216.792 125.033 168.614 125.033 138.865 154.782C109.116 184.531 109.116 232.71 138.865 262.459C140.461 264.055 142.057 265.506 143.799 266.957L171.081 259.701C167.888 258.25 164.841 256.364 161.793 254.332L238.27 177.856C252.781 199.333 250.459 228.647 231.594 247.657C226.95 252.3 221.726 255.928 216.067 258.54C201.99 265.071 185.592 265.361 171.081 259.701L143.654 267.247C153.667 275.519 165.131 280.888 177.176 283.355C201.41 288.289 227.531 281.469 246.396 262.604C276.145 232.71 276.145 184.531 246.541 154.782ZM146.991 239.385C132.48 217.908 134.802 188.594 153.667 169.729C172.677 150.719 201.99 148.542 223.468 163.054L146.991 239.385Z" fill="#FF7059"/>
<path d="M62.7661 204.282L86.6232 165.521L116.125 234.611L122.075 283.544L85.4188 271.862L62.7661 204.282Z" fill="#DCC6FF"/>
<path d="M182.714 259.977C180.32 259.904 179.802 261.109 179.802 263.213L179.643 275.388C179.643 279.45 179.214 280.388 182.714 279.288L204.719 272.123C206.75 271.34 208.492 270.034 209.42 268.336L212.453 263.01C213.31 261.588 212.091 260.035 210.306 259.977L182.714 259.977Z" fill="#824F36"/>
<path d="M181.544 259.789L83.2134 259.02C82.8215 281.542 103.994 298.303 125.79 292.759L182.72 279.437L182.096 259.948L181.544 259.789Z" fill="#DCC6FF"/>
<path fill-rule="evenodd" clip-rule="evenodd" d="M76.186 145.842L102.549 144.052C119.963 142.891 132.588 126.928 129.686 109.805L129.407 108.103L131.679 104.268C132.405 103.252 132.26 101.946 131.534 100.93L127.389 95.7844L126.928 92.9712C124.316 76.8632 109.079 65.9795 92.9712 68.5916C76.8632 71.2037 65.9795 86.4409 68.5916 102.549L76.186 145.842Z" fill="#824F36"/>
<path d="M118.404 85.2715C117.969 85.4166 117.533 85.2715 117.098 84.8362C116.517 84.2557 116.517 83.385 117.098 82.8045C117.243 82.6594 119.565 80.1924 123.773 79.7571C124.644 79.612 125.37 80.1924 125.37 81.0631C125.515 81.9338 124.934 82.6594 124.064 82.6594C121.016 82.9496 119.275 84.8362 119.275 84.8362C118.984 85.1264 118.694 85.2715 118.404 85.2715Z" fill="black"/>
<path d="M125.225 98.0416C125.66 100.654 125.805 102.685 125.079 102.83C124.354 102.976 123.628 100.944 123.193 98.3318C122.758 95.7197 122.612 93.6881 123.338 93.543C124.064 93.3979 124.789 95.5746 125.225 98.0416Z" fill="black"/>
<path d="M123.483 120.534C124.063 120.389 124.499 120.825 124.644 121.26C124.789 121.695 124.499 122.276 123.918 122.421C123.628 122.421 123.483 122.566 123.193 122.566C118.694 123.292 113.615 120.679 111.729 116.616V115.891C111.874 115.6 112.019 115.455 112.164 115.31C112.261 115.31 112.357 115.262 112.454 115.165C112.889 115.165 113.325 115.31 113.47 115.746C115.066 119.083 119.129 121.115 122.902 120.534H123.483Z" fill="black"/>
<path d="M67.2241 105.431L73.7543 131.842C76.9469 131.262 78.2529 130.246 80.5748 128.214C82.8967 126.183 84.638 123.426 85.6539 120.233L90.1525 105.141L113.03 72.3865C114.895 67.6409 110.179 64.6535 106.551 65.2339C77.4026 71.2316 62.5178 77.4412 67.2241 105.431Z" fill="black"/>
<path d="M80.8189 104.136C82.4152 100.944 86.3333 99.4926 89.671 101.089C92.8636 102.685 94.3147 106.603 92.7184 109.941C91.1222 113.133 87.204 114.585 83.8664 112.988C80.5287 111.392 79.2226 107.474 80.8189 104.136Z" fill="#824F36"/>
<path d="M262.416 228.324C258.082 224.7 255.285 220.43 253.468 216.806C251.51 213.183 253.747 208.524 257.802 207.877L268.708 206.065V225.218C268.848 228.712 264.933 230.524 262.416 228.324Z" fill="#824F36"/>
</g>
<defs>
<clipPath id="clip0_12910_2176">
<rect width="312" height="312" rx="12" fill="white"/>
</clipPath>
</defs>
</svg>
