<svg width="312" height="312" viewBox="0 0 312 312" fill="none" xmlns="http://www.w3.org/2000/svg">
<g clip-path="url(#clip0_12910_2140)">
<rect width="312" height="312" rx="17.414" fill="#F8F8F8"/>
<path d="M87.0698 296.037H226.381V319.256H87.0698V296.037Z" fill="#4680E1"/>
<path d="M130.865 114.915C130.865 121.35 128.333 127.573 123.692 132.215L116.202 139.704C111.666 144.24 109.029 150.464 109.029 157.004V158.903C109.029 172.405 120 183.27 133.397 183.27H179.494C192.996 183.27 203.861 172.299 203.861 158.903V156.582C203.861 153.312 202.595 150.147 200.169 147.827L194.262 141.919C191.941 139.599 190.57 136.434 190.57 133.164C190.57 129.894 189.304 126.729 186.878 124.409L182.237 119.767" fill="black"/>
<path d="M51.4335 295.612C51.2225 295.085 51.117 294.663 50.9061 294.136C45.8427 279.789 47.3195 264.177 54.0707 250.57L75.3788 207.32C80.0202 196.033 88.5646 186.645 99.6407 180.316L123.27 166.919C126.012 165.337 134.662 162.7 137.827 162.7L167.785 161.961C171.055 161.961 179.177 162.7 188.565 166.919L212.194 180.316C223.165 186.54 231.709 196.033 236.456 207.32L261.351 267.026C261.456 267.237 261.456 267.342 261.562 267.553C271.161 291.287 252.174 316.604 225.169 316.604H112.51C112.51 316.604 92.3621 319.452 74.4295 315.338C63.7754 312.912 55.1255 305.423 51.4335 295.612Z" fill="#4680E1"/>
<path d="M185.085 164.388L161.562 203.734C159.979 206.477 156.076 206.477 154.389 203.734L130.865 164.388L140.57 111.54H175.38L185.085 164.388Z" fill="#F4C9B8"/>
<path d="M155.89 343.925C198.143 343.925 232.396 309.672 232.396 267.418C232.396 225.165 198.143 190.912 155.89 190.912C113.636 190.912 79.3828 225.165 79.3828 267.418C79.3828 309.672 113.636 343.925 155.89 343.925Z" fill="#FFBD6E"/>
<path d="M126.118 239.915C132.351 239.915 137.405 234.862 137.405 228.628C137.405 222.395 132.351 217.341 126.118 217.341C119.884 217.341 114.831 222.395 114.831 228.628C114.831 234.862 119.884 239.915 126.118 239.915Z" fill="#824F36"/>
<path d="M197.321 297.933C203.555 297.933 208.608 292.88 208.608 286.646C208.608 280.413 203.555 275.359 197.321 275.359C191.088 275.359 186.034 280.413 186.034 286.646C186.034 292.88 191.088 297.933 197.321 297.933Z" fill="#824F36"/>
<path d="M130.548 309.537C136.607 309.537 141.518 304.484 141.518 298.25C141.518 292.016 136.607 286.963 130.548 286.963C124.489 286.963 119.577 292.016 119.577 298.25C119.577 304.484 124.489 309.537 130.548 309.537Z" fill="#824F36"/>
<path d="M111.877 268.397C118.111 268.397 123.164 263.344 123.164 257.11C123.164 250.877 118.111 245.823 111.877 245.823C105.643 245.823 100.59 250.877 100.59 257.11C100.59 263.344 105.643 268.397 111.877 268.397Z" fill="#824F36"/>
<path d="M189.937 228.313C196.171 228.313 201.224 223.259 201.224 217.026C201.224 210.792 196.171 205.739 189.937 205.739C183.703 205.739 178.65 210.792 178.65 217.026C178.65 223.259 183.703 228.313 189.937 228.313Z" fill="#824F36"/>
<path d="M233.235 268.081L233.024 269.347L231.441 281.161C231.441 281.161 231.441 281.161 231.441 281.267C230.808 284.431 229.859 287.49 228.91 290.55C228.699 290.655 228.488 290.761 228.382 290.761C228.171 290.761 227.855 290.55 227.644 290.233L221.209 279.052C220.471 277.786 220.049 275.782 220.049 273.25L219.838 265.444C219.838 263.44 221.842 261.33 222.581 261.435L232.074 262.701C232.602 262.807 232.918 263.44 233.129 264.389C233.446 265.233 233.446 266.604 233.235 268.081Z" fill="#E59A48"/>
<path d="M236.733 261.014H219.856C218.695 261.014 217.851 263.123 218.379 265.022L220.278 272.09C220.911 274.41 221.965 276.204 223.337 277.259L235.573 286.647C235.995 286.963 236.312 287.069 236.733 287.069C238.316 287.069 239.582 284.854 239.582 282.005V265.972C239.687 263.229 238.316 261.014 236.733 261.014Z" fill="#F4C9B8"/>
<path d="M181.709 145.928C179.916 147.405 178.017 148.671 175.907 149.725C172.321 151.413 168.418 152.363 164.198 152.363C159.452 152.363 155.021 151.097 151.224 148.987C149.958 148.249 150.696 146.35 152.068 146.666C153.966 147.088 155.97 147.299 157.975 147.299C167.047 147.299 175.063 142.869 179.916 136.012L181.709 145.928Z" fill="#CEA193"/>
<path d="M137.088 105.844C137.088 102.363 134.346 99.6201 130.865 99.6201C127.384 99.6201 124.641 102.363 124.641 105.844C124.641 109.325 127.384 114.916 130.865 114.916C134.24 114.916 137.088 109.325 137.088 105.844Z" fill="#F4C9B8"/>
<path d="M191.308 105.844C191.308 102.363 188.566 99.6201 185.085 99.6201C181.603 99.6201 178.861 102.363 178.861 105.844C178.861 109.325 181.603 114.916 185.085 114.916C188.46 114.916 191.308 109.325 191.308 105.844Z" fill="#F4C9B8"/>
<path d="M157.975 147.405C143.523 147.405 131.604 136.012 131.076 121.561L130.127 98.6703C129.494 82.8474 142.152 69.6616 157.975 69.6616C173.798 69.6616 186.456 82.8474 185.823 98.6703L184.874 121.561C184.241 136.012 172.427 147.405 157.975 147.405Z" fill="#F4C9B8"/>
<path d="M185.823 97.51V98.6703L185.506 109.535C185.506 110.379 184.768 111.012 183.924 111.012H183.291C182.974 111.012 182.553 110.907 182.236 110.59L161.35 92.4466C159.135 90.5479 156.392 89.493 153.544 89.493H147.426C141.729 89.493 136.877 93.5015 135.717 99.0922L133.607 109.641C133.502 110.379 132.869 110.907 132.13 110.907C131.286 110.907 130.653 110.274 130.548 109.43L130.231 98.6703V98.5648V98.0374C130.231 82.8474 142.257 69.9781 157.447 69.6616C173.059 69.3452 185.823 81.898 185.823 97.51Z" fill="black"/>
<path d="M169.262 119.029C169.262 121.245 168.945 123.038 167.89 123.038C166.836 123.038 166.519 121.245 166.519 119.029C166.519 116.814 166.836 115.021 167.89 115.021C168.945 115.021 169.262 116.814 169.262 119.029Z" fill="black"/>
<path d="M149.325 119.029C149.325 121.245 149.008 123.038 147.953 123.038C146.898 123.038 146.582 121.245 146.582 119.029C146.582 116.814 146.898 115.021 147.953 115.021C149.008 115.021 149.325 116.814 149.325 119.029Z" fill="black"/>
<path d="M143.733 112.595C143.311 112.595 142.889 112.384 142.573 111.962C142.045 111.329 142.256 110.38 142.889 109.958C142.995 109.852 145.737 107.848 149.746 108.059C150.59 108.059 151.223 108.797 151.117 109.536C151.117 110.38 150.379 111.013 149.64 110.907C146.687 110.802 144.683 112.278 144.577 112.278C144.261 112.489 143.944 112.595 143.733 112.595Z" fill="black"/>
<path d="M172.216 112.595C171.899 112.595 171.583 112.489 171.372 112.278C171.372 112.278 169.262 110.802 166.308 110.907C165.464 110.907 164.832 110.274 164.832 109.536C164.832 108.692 165.464 108.059 166.203 108.059C170.211 107.848 172.954 109.852 173.059 109.958C173.692 110.485 173.798 111.329 173.376 111.962C173.165 112.489 172.638 112.595 172.216 112.595Z" fill="black"/>
<path d="M157.975 138.966C157.553 138.966 157.131 138.649 157.131 138.122C157.131 137.7 157.448 137.278 157.975 137.278C164.41 137.278 168.735 133.48 168.735 133.48C169.051 133.164 169.579 133.164 169.895 133.586C170.212 133.902 170.212 134.43 169.79 134.746C169.579 134.852 165.043 138.966 157.975 138.966Z" fill="black"/>
<path d="M92.6908 265.233L92.4798 273.039C92.3743 275.571 91.9524 277.681 91.1085 278.841L83.9354 290.128C83.7245 290.444 83.408 290.655 83.197 290.655C83.0916 290.655 83.0915 290.655 82.9861 290.655C80.1379 282.533 78.6611 273.883 78.6611 264.811C78.6611 264.073 78.6611 263.334 78.6611 262.596C78.7666 262.491 78.8721 262.491 78.9776 262.491L89.6317 261.225C90.4756 261.119 92.7963 263.123 92.6908 265.233Z" fill="#E59A48"/>
<path d="M75.3452 261.014C73.7629 261.014 72.4971 263.44 72.4971 266.288V283.166C72.4971 286.119 73.7629 288.44 75.3452 288.44C75.7671 288.44 76.1891 288.229 76.5055 288.018L88.7419 278.102C90.1133 277.048 91.1681 275.043 91.801 272.617L93.6998 265.128C94.2272 263.123 93.3833 260.908 92.223 260.908L75.3452 261.014Z" fill="#F4C9B8"/>
</g>
<defs>
<clipPath id="clip0_12910_2140">
<rect width="312" height="312" rx="17.414" fill="white"/>
</clipPath>
</defs>
</svg>
